<svg width="2300" height="2300" viewBox="0 0 2300 2300" fill="none" xmlns="http://www.w3.org/2000/svg">
<rect width="2300" height="2300" fill="url(#paint0_linear_223_3)"/>
<path fill-rule="evenodd" clip-rule="evenodd" d="M966.796 1284.6L868.041 1185.84L415.702 1638.18C417.907 1639.5 420.163 1640.76 422.467 1641.93C446.157 1654 477.168 1654 539.19 1654H1759.84C1821.86 1654 1852.87 1654 1876.56 1641.93C1878.86 1640.76 1881.12 1639.5 1883.32 1638.18L1430.99 1185.84L1332.23 1284.6C1301.06 1315.77 1263.9 1337.31 1224.46 1349.23C1200.06 1356.6 1174.79 1360.28 1149.51 1360.28C1083.38 1360.28 1017.25 1335.05 966.796 1284.6ZM1921.2 1600.3C1922.53 1598.09 1923.78 1595.84 1924.95 1593.53C1937.02 1569.84 1937.02 1538.83 1937.02 1476.81V822.19C1937.02 760.168 1937.02 729.157 1924.95 705.467C1923.44 702.495 1921.8 699.602 1920.03 696.796L1468.87 1147.96L1921.2 1600.3ZM1885.23 661.992C1882.42 660.228 1879.53 658.585 1876.56 657.07C1852.87 645 1821.86 645 1759.84 645H539.19C477.168 645 446.157 645 422.467 657.07C419.496 658.584 416.604 660.227 413.798 661.991L1001.6 1249.79C1031.7 1279.89 1068.7 1298.91 1107.5 1306.82C1134.52 1312.33 1162.41 1312.47 1189.47 1307.23C1229.02 1299.57 1266.79 1280.43 1297.43 1249.79L1885.23 661.992ZM378.993 696.795L830.16 1147.96L377.821 1600.3C376.496 1598.09 375.244 1595.84 374.07 1593.53C362 1569.84 362 1538.83 362 1476.81V822.19C362 760.168 362 729.157 374.07 705.467C375.585 702.495 377.228 699.602 378.993 696.795Z" fill="url(#paint1_linear_223_3)"/>
<defs>
<linearGradient id="paint0_linear_223_3" x1="1150" y1="0" x2="1150" y2="2300" gradientUnits="userSpaceOnUse">
<stop stop-color="#1B76E9"/>
<stop offset="1" stop-color="#21B8F2"/>
</linearGradient>
<linearGradient id="paint1_linear_223_3" x1="1149.51" y1="645" x2="1149.51" y2="1654" gradientUnits="userSpaceOnUse">
<stop stop-color="#F7F7F7"/>
<stop offset="1" stop-color="#F9F9F9"/>
</linearGradient>
</defs>
</svg>
