<svg width="2300" height="2300" viewBox="0 0 2300 2300" fill="none" xmlns="http://www.w3.org/2000/svg">
<rect width="2300" height="2300" fill="#08B8F2"/>
<path d="M1731.75 742.625V975.125L1150.5 1207.62L569.248 975.125V742.625C569.248 727.209 575.372 712.425 586.272 701.524C597.173 690.624 611.957 684.5 627.373 684.5H1673.62C1689.04 684.5 1703.82 690.624 1714.72 701.524C1725.62 712.425 1731.75 727.209 1731.75 742.625ZM569.248 1100.33V1556.37C569.248 1571.79 575.372 1586.57 586.272 1597.48C597.173 1608.38 611.957 1614.5 627.373 1614.5H1673.62C1689.04 1614.5 1703.82 1608.38 1714.72 1597.48C1725.62 1586.57 1731.75 1571.79 1731.75 1556.37V1100.33L1150.5 1332.83L569.248 1100.33Z" fill="white"/>
</svg>
